<svg width="35" height="35" viewBox="0 0 35 35" fill="none" xmlns="http://www.w3.org/2000/svg">
<path d="M28.2558 24.9718H25.7129C24.7501 24.9718 24.4525 24.2063 22.723 22.4534C21.2164 20.9946 20.55 20.7986 20.1801 20.7986C19.6607 20.7986 19.5125 20.9468 19.5125 21.6633V23.96C19.5125 24.5785 19.3153 24.9485 17.685 24.9485C14.3963 24.7279 11.5698 22.9342 9.92898 20.3201L9.90447 20.2793C7.9999 17.9137 6.59598 15.0627 5.9016 11.9444L5.87593 11.8079C5.87593 11.4379 6.02414 11.0913 6.74069 11.0913H9.28362C9.92548 11.0913 10.1729 11.3877 10.4215 12.0786C11.6795 15.7104 13.7801 18.8963 14.6449 18.8963C14.9658 18.8963 15.114 18.7481 15.114 17.9335V14.1769C15.0148 12.4474 14.1011 12.3004 14.1011 11.683C14.1116 11.3527 14.3823 11.089 14.7137 11.089C14.7242 11.089 14.7336 11.089 14.7441 11.0902H14.7429H18.7446C19.2885 11.0902 19.4857 11.3866 19.4857 12.0284V17.0933C19.4857 17.636 19.7331 17.8343 19.8813 17.8343C20.2022 17.8343 20.4753 17.636 21.067 17.0443C22.297 15.5423 23.3485 13.8245 24.1502 11.9724L24.2039 11.8324C24.3731 11.4088 24.7793 11.1147 25.2542 11.1147C25.2764 11.1147 25.2974 11.1158 25.3196 11.117H25.3161H27.859C28.6246 11.117 28.7985 11.5103 28.6246 12.0553C27.6046 14.3018 26.4586 16.232 25.1305 18.0199L25.1912 17.9335C24.9205 18.3782 24.8213 18.5754 25.1912 19.0714C25.462 19.4413 26.3524 20.2069 26.9452 20.8989C27.803 21.7474 28.5219 22.7347 29.0646 23.8246L29.0937 23.8888C29.3411 24.603 28.97 24.9742 28.2535 24.9742L28.2558 24.9718ZM22.8724 0H12.1276C2.3212 0 0 2.3212 0 12.1276V22.8724C0 32.6788 2.3212 35 12.1276 35H22.8724C32.6788 35 35 32.6788 35 22.8724V12.1276C35 2.3212 32.6531 0 22.8724 0Z" fill="#42718F"/>
</svg>
